<svg display="none" width="0" height="0" version="1.1" xmlns="http://www.w3.org/2000/svg" xmlns:xlink="http://www.w3.org/1999/xlink">
<defs>
<symbol id="icon-twitter" viewBox="0 0 951 1024">
	<title>twitter</title>
	<path class="path1" d="M925.714 233.143q-38.286 56-92.571 95.429 0.571 8 0.571 24 0 74.286-21.714 148.286t-66 142-105.429 120.286-147.429 83.429-184.571 31.143q-154.857 0-283.429-82.857 20 2.286 44.571 2.286 128.571 0 229.143-78.857-60-1.143-107.429-36.857t-65.143-91.143q18.857 2.857 34.857 2.857 24.571 0 48.571-6.286-64-13.143-106-63.714t-42-117.429v-2.286q38.857 21.714 83.429 23.429-37.714-25.143-60-65.714t-22.286-88q0-50.286 25.143-93.143 69.143 85.143 168.286 136.286t212.286 56.857q-4.571-21.714-4.571-42.286 0-76.571 54-130.571t130.571-54q80 0 134.857 58.286 62.286-12 117.143-44.571-21.143 65.714-81.143 101.714 53.143-5.714 106.286-28.571z"></path>
</symbol>
<symbol id="icon-facebook" viewBox="0 0 585 1024">
	<title>facebook</title>
	<path class="path1" d="M548 6.857v150.857h-89.714q-49.143 0-66.286 20.571t-17.143 61.714v108h167.429l-22.286 169.143h-145.143v433.714h-174.857v-433.714h-145.714v-169.143h145.714v-124.571q0-106.286 59.429-164.857t158.286-58.571q84 0 130.286 6.857z"></path>
</symbol>
<symbol id="icon-pinterest" viewBox="0 0 1024 1024">
	<title>pinterest</title>
	<path class="path1" d="M877.714 512q0 119.429-58.857 220.286t-159.714 159.714-220.286 58.857q-63.429 0-124.571-18.286 33.714-53.143 44.571-93.714 5.143-19.429 30.857-120.571 11.429 22.286 41.714 38.571t65.143 16.286q69.143 0 123.429-39.143t84-107.714 29.714-154.286q0-65.143-34-122.286t-98.571-93.143-145.714-36q-60 0-112 16.571t-88.286 44-62.286 63.143-38.286 74-12.286 76.571q0 59.429 22.857 104.571t66.857 63.429q17.143 6.857 21.714-11.429 1.143-4 4.571-17.714t4.571-17.143q3.429-13.143-6.286-24.571-29.143-34.857-29.143-86.286 0-86.286 59.714-148.286t156.286-62q86.286 0 134.571 46.857t48.286 121.714q0 97.143-39.143 165.143t-100.286 68q-34.857 0-56-24.857t-13.143-59.714q4.571-20 15.143-53.429t17.143-58.857 6.571-43.143q0-28.571-15.429-47.429t-44-18.857q-35.429 0-60 32.571t-24.571 81.143q0 41.714 14.286 69.714l-56.571 238.857q-9.714 40-7.429 101.143-117.714-52-190.286-160.571t-72.571-241.714q0-119.429 58.857-220.286t159.714-159.714 220.286-58.857 220.286 58.857 159.714 159.714 58.857 220.286z"></path>
</symbol>
<symbol id="icon-linkedin" viewBox="0 0 1024 1024">
	<title>linkedin</title>
	<path class="path1" d="M199.429 357.143v566.286h-188.571v-566.286h188.571zM211.429 182.286q0.571 41.714-28.857 69.714t-77.429 28h-1.143q-46.857 0-75.429-28t-28.571-69.714q0-42.286 29.429-70t76.857-27.714 76 27.714 29.143 70zM877.714 598.857v324.571h-188v-302.857q0-60-23.143-94t-72.286-34q-36 0-60.286 19.714t-36.286 48.857q-6.286 17.143-6.286 46.286v316h-188q1.143-228 1.143-369.714t-0.571-169.143l-0.571-27.429h188v82.286h-1.143q11.429-18.286 23.429-32t32.286-29.714 49.714-24.857 65.429-8.857q97.714 0 157.143 64.857t59.429 190z"></path>
</symbol>
<symbol id="icon-youtube" viewBox="0 0 1024 1024">
	<title>youtube</title>
	<path class="path1" d="M554.857 710.857v120.571q0 38.286-22.286 38.286-13.143 0-25.714-12.571v-172q12.571-12.571 25.714-12.571 22.286 0 22.286 38.286zM748 711.429v26.286h-51.429v-26.286q0-38.857 25.714-38.857t25.714 38.857zM196 586.857h61.143v-53.714h-178.286v53.714h60v325.143h57.143v-325.143zM360.571 912h50.857v-282.286h-50.857v216q-17.143 24-32.571 24-10.286 0-12-12-0.571-1.714-0.571-20v-208h-50.857v223.429q0 28 4.571 41.714 6.857 21.143 33.143 21.143 27.429 0 58.286-34.857v30.857zM605.714 827.429v-112.571q0-41.714-5.143-56.571-9.714-32-40.571-32-28.571 0-53.143 30.857v-124h-50.857v378.857h50.857v-27.429q25.714 31.429 53.143 31.429 30.857 0 40.571-31.429 5.143-15.429 5.143-57.143zM798.857 821.714v-7.429h-52q0 29.143-1.143 34.857-4 20.571-22.857 20.571-26.286 0-26.286-39.429v-49.714h102.286v-58.857q0-45.143-15.429-66.286-22.286-29.143-60.571-29.143-38.857 0-61.143 29.143-16 21.143-16 66.286v98.857q0 45.143 16.571 66.286 22.286 29.143 61.714 29.143 41.143 0 61.714-30.286 10.286-15.429 12-30.857 1.143-5.143 1.143-33.143zM451.429 300v-120q0-39.429-24.571-39.429t-24.571 39.429v120q0 40 24.571 40t24.571-40zM862.286 729.143q0 133.714-14.857 200-8 33.714-33.143 56.571t-58.286 26.286q-105.143 12-317.143 12t-317.143-12q-33.143-3.429-58.571-26.286t-32.857-56.571q-14.857-64-14.857-200 0-133.714 14.857-200 8-33.714 33.143-56.571t58.857-26.857q104.571-11.429 316.571-11.429t317.143 11.429q33.143 4 58.571 26.857t32.857 56.571q14.857 64 14.857 200zM292 0h58.286l-69.143 228v154.857h-57.143v-154.857q-8-42.286-34.857-121.143-21.143-58.857-37.143-106.857h60.571l40.571 150.286zM503.429 190.286v100q0 46.286-16 67.429-21.143 29.143-60.571 29.143-38.286 0-60-29.143-16-21.714-16-67.429v-100q0-45.714 16-66.857 21.714-29.143 60-29.143 39.429 0 60.571 29.143 16 21.143 16 66.857zM694.857 97.714v285.143h-52v-31.429q-30.286 35.429-58.857 35.429-26.286 0-33.714-21.143-4.571-13.714-4.571-42.857v-225.143h52v209.714q0 18.857 0.571 20 1.714 12.571 12 12.571 15.429 0 32.571-24.571v-217.714h52z"></path>
</symbol>
<symbol id="icon-instagram" viewBox="0 0 1024 1024">
	<title>instagram</title>
	<path class="path1" d="M778.286 814.857v-370.286h-77.143q11.429 36 11.429 74.857 0 72-36.571 132.857t-99.429 96.286-137.143 35.429q-112.571 0-192.571-77.429t-80-187.143q0-38.857 11.429-74.857h-80.571v370.286q0 14.857 10 24.857t24.857 10h610.857q14.286 0 24.571-10t10.286-24.857zM616 510.286q0-70.857-51.714-120.857t-124.857-50q-72.571 0-124.286 50t-51.714 120.857 51.714 120.857 124.286 50q73.143 0 124.857-50t51.714-120.857zM778.286 304.571v-94.286q0-16-11.429-27.714t-28-11.714h-99.429q-16.571 0-28 11.714t-11.429 27.714v94.286q0 16.571 11.429 28t28 11.429h99.429q16.571 0 28-11.429t11.429-28zM877.714 185.714v652.571q0 46.286-33.143 79.429t-79.429 33.143h-652.571q-46.286 0-79.429-33.143t-33.143-79.429v-652.571q0-46.286 33.143-79.429t79.429-33.143h652.571q46.286 0 79.429 33.143t33.143 79.429z"></path>
</symbol>
<symbol id="icon-vimeo-square" viewBox="0 0 1024 1024">
	<title>vimeo-square</title>
	<path class="path1" d="M716.571 364q9.143-48.571-12-75.429-29.714-37.143-106.857-25.714-9.714 1.714-23.429 7.143t-32.857 17.429-36.857 27.714-34 40-25.429 52.286q45.714-4 64.857 9.143t15.143 56.571q-2.857 29.714-29.714 81.714-24.571 44.571-40.571 56.571-25.143 18.286-49.714-8-13.143-13.714-21.429-36.857t-10.857-41.714-5.714-48-4.857-40.857q-13.143-73.714-19.429-93.714-6.857-21.143-20.286-39.429t-28.857-22.857q-32.571-9.143-72.571 14.286-30.857 18.286-78 60.571t-70 58.286v4q9.143 4.571 14.571 14.857t12.286 11.429q12 1.714 31.143-4.857t33.143-6 23.714 17.143q6.286 10.286 10.571 22t8.571 27.429 7.143 23.143q9.714 26.286 30.286 106.857 20.571 83.429 32.571 112.571 24 56.571 58.857 71.429 24.571 6.857 48.571 0.857t43.429-18q74.857-44 142.857-135.429 59.429-79.429 98.571-167.143t47.143-129.429zM877.714 237.714v548.571q0 68-48.286 116.286t-116.286 48.286h-548.571q-68 0-116.286-48.286t-48.286-116.286v-548.571q0-68 48.286-116.286t116.286-48.286h548.571q68 0 116.286 48.286t48.286 116.286z"></path>
</symbol>
</defs>
</svg>
